<?xml version="1.0" encoding="utf-8"?>
<!-- Generator: Adobe Illustrator 19.1.0, SVG Export Plug-In . SVG Version: 6.00 Build 0)  -->
<svg version="1.1" id="arrow" xmlns="http://www.w3.org/2000/svg" xmlns:xlink="http://www.w3.org/1999/xlink" x="0px" y="0px"
	 viewBox="0 0 400.1 19" style="enable-background:new 0 0 400.1 19;" xml:space="preserve">
<style type="text/css">
	.st0{fill:#8A8A8A;}
</style>
<rect id="arrow-bar" x="13.8" y="7.6" class="st0" width="364.3" height="3.8"/>
<path id="point-left" class="st0" d="M13.8,11.4V7.6h-7c2.5-2.8,4.8-5.3,7-7.6H11C8,3,5,6.5,2,9.5c3,3,6,6.5,9,9.5
	c0.7,0,2.1,0,2.8,0c-2.2-2.4-4.5-5-6.9-7.6H13.8z"/>
<path id="point-right" class="st0" d="M377.3,7.6v3.8h7c-2.5,2.8-4.8,5.3-7,7.6h2.8c3-3,6-6.5,9-9.5c-3-3-6-6.5-9-9.5
	c-0.7,0-2.1,0-2.8,0c2.2,2.4,4.5,5,6.9,7.6H377.3z"/>
</svg>
